<svg width="20" height="21" viewBox="0 0 20 21" fill="none" xmlns="http://www.w3.org/2000/svg">
<path d="M6 10.5C6 11.0304 5.78929 11.5391 5.41421 11.9142C5.03914 12.2893 4.53043 12.5 4 12.5C3.46957 12.5 2.96086 12.2893 2.58579 11.9142C2.21071 11.5391 2 11.0304 2 10.5C2 9.96957 2.21071 9.46086 2.58579 9.08579C2.96086 8.71071 3.46957 8.5 4 8.5C4.53043 8.5 5.03914 8.71071 5.41421 9.08579C5.78929 9.46086 6 9.96957 6 10.5ZM12 10.5C12 11.0304 11.7893 11.5391 11.4142 11.9142C11.0391 12.2893 10.5304 12.5 10 12.5C9.46957 12.5 8.96086 12.2893 8.58579 11.9142C8.21071 11.5391 8 11.0304 8 10.5C8 9.96957 8.21071 9.46086 8.58579 9.08579C8.96086 8.71071 9.46957 8.5 10 8.5C10.5304 8.5 11.0391 8.71071 11.4142 9.08579C11.7893 9.46086 12 9.96957 12 10.5ZM16 12.5C16.5304 12.5 17.0391 12.2893 17.4142 11.9142C17.7893 11.5391 18 11.0304 18 10.5C18 9.96957 17.7893 9.46086 17.4142 9.08579C17.0391 8.71071 16.5304 8.5 16 8.5C15.4696 8.5 14.9609 8.71071 14.5858 9.08579C14.2107 9.46086 14 9.96957 14 10.5C14 11.0304 14.2107 11.5391 14.5858 11.9142C14.9609 12.2893 15.4696 12.5 16 12.5Z" fill="#94A3B8"/>
</svg>
