<svg width="24" height="25" viewBox="0 0 24 25" fill="none" xmlns="http://www.w3.org/2000/svg">
<path d="M15 12.5C15 13.2956 14.6839 14.0587 14.1213 14.6213C13.5587 15.1839 12.7956 15.5 12 15.5C11.2044 15.5 10.4413 15.1839 9.87868 14.6213C9.31607 14.0587 9 13.2956 9 12.5C9 11.7044 9.31607 10.9413 9.87868 10.3787C10.4413 9.81607 11.2044 9.5 12 9.5C12.7956 9.5 13.5587 9.81607 14.1213 10.3787C14.6839 10.9413 15 11.7044 15 12.5V12.5Z" stroke="#94A3B8" stroke-width="2" stroke-linecap="round" stroke-linejoin="round"/>
<path d="M2.45801 12.5C3.73201 8.443 7.52301 5.5 12 5.5C16.478 5.5 20.268 8.443 21.542 12.5C20.268 16.557 16.478 19.5 12 19.5C7.52301 19.5 3.73201 16.557 2.45801 12.5V12.5Z" stroke="#94A3B8" stroke-width="2" stroke-linecap="round" stroke-linejoin="round"/>
</svg>
