<svg width="20" height="20" viewBox="0 0 20 20" fill="none" xmlns="http://www.w3.org/2000/svg">
<path d="M14.1667 14.1667H15.8333C16.7538 14.1667 17.5 13.4205 17.5 12.5V9.16667C17.5 8.24619 16.7538 7.5 15.8333 7.5H4.16667C3.24619 7.5 2.5 8.24619 2.5 9.16667V12.5C2.5 13.4205 3.24619 14.1667 4.16667 14.1667H5.83333M7.5 17.5H12.5C13.4205 17.5 14.1667 16.7538 14.1667 15.8333V12.5C14.1667 11.5795 13.4205 10.8333 12.5 10.8333H7.5C6.57953 10.8333 5.83333 11.5795 5.83333 12.5V15.8333C5.83333 16.7538 6.57953 17.5 7.5 17.5ZM14.1667 7.5V4.16667C14.1667 3.24619 13.4205 2.5 12.5 2.5H7.5C6.57953 2.5 5.83333 3.24619 5.83333 4.16667V7.5H14.1667Z" stroke="white" stroke-width="2" stroke-linecap="round" stroke-linejoin="round"/>
</svg>
