<svg width="24" height="24" viewBox="0 0 24 24" fill="none" xmlns="http://www.w3.org/2000/svg">
<path d="M11.9999 5.5999C12.8836 5.5999 13.5999 4.88356 13.5999 3.9999C13.5999 3.11625 12.8836 2.3999 11.9999 2.3999C11.1162 2.3999 10.3999 3.11625 10.3999 3.9999C10.3999 4.88356 11.1162 5.5999 11.9999 5.5999Z" fill="black"/>
<path d="M3.9999 7.2C4.88356 7.2 5.5999 6.48366 5.5999 5.6C5.5999 4.71634 4.88356 4 3.9999 4C3.11625 4 2.3999 4.71634 2.3999 5.6C2.3999 6.48366 3.11625 7.2 3.9999 7.2Z" fill="black"/>
<path d="M11.9999 21.5999C12.8836 21.5999 13.5999 20.8836 13.5999 19.9999C13.5999 19.1162 12.8836 18.3999 11.9999 18.3999C11.1162 18.3999 10.3999 19.1162 10.3999 19.9999C10.3999 20.8836 11.1162 21.5999 11.9999 21.5999Z" fill="black"/>
<path d="M3.9999 19.9998C4.88356 19.9998 5.5999 19.2835 5.5999 18.3998C5.5999 17.5161 4.88356 16.7998 3.9999 16.7998C3.11625 16.7998 2.3999 17.5161 2.3999 18.3998C2.3999 19.2835 3.11625 19.9998 3.9999 19.9998Z" fill="black"/>
<path d="M11.6775 2.43262L3.7023 4.02782L2.3999 5.59982V18.3998L3.7023 19.9718L11.6775 21.567L13.5999 19.9998V3.99982L11.6775 2.43262ZM7.5503 16.0006C6.3479 16.0006 5.6231 15.7134 5.3431 15.5694V13.843C5.6559 14.1054 6.3559 14.6294 7.4743 14.6294C7.6935 14.6294 8.7847 14.599 8.7847 13.8486C8.7847 12.4926 5.3095 12.8214 5.3095 10.2974C5.3095 9.23982 5.9687 7.99902 8.3479 7.99902C9.4487 7.99902 10.0167 8.19502 10.2799 8.29582V9.90862C10.1503 9.81902 9.4487 9.37022 8.4447 9.37022C7.2071 9.37022 7.1455 10.0326 7.1455 10.1518C7.1455 11.4478 10.6199 11.1358 10.6199 13.6934C10.6199 15.079 9.6679 16.0006 7.5503 16.0006Z" fill="black"/>
<path d="M20.0001 14.4001C21.3256 14.4001 22.4001 13.3256 22.4001 12.0001C22.4001 10.6746 21.3256 9.6001 20.0001 9.6001C18.6746 9.6001 17.6001 10.6746 17.6001 12.0001C17.6001 13.3256 18.6746 14.4001 20.0001 14.4001Z" fill="black"/>
<path d="M15.2002 4.7998C16.5258 4.7998 17.6002 5.8742 17.6002 7.1998C17.6002 8.5254 16.5258 9.5998 15.2002 9.5998V4.7998Z" fill="black"/>
<path d="M15.2002 14.3999C16.5258 14.3999 17.6002 15.4743 17.6002 16.7999C17.6002 18.1255 16.5258 19.1999 15.2002 19.1999V14.3999Z" fill="black"/>
<path d="M15.2002 7.2002C17.8514 7.2002 20.0002 9.349 20.0002 12.0002C20.0002 14.6514 17.8514 16.8002 15.2002 16.8002" stroke="black" stroke-width="2" stroke-miterlimit="10"/>
</svg>
